<?xml version="1.0" encoding="UTF-8"?>
<svg width="24" height="24" viewBox="0 0 24 24" xmlns="http://www.w3.org/2000/svg">
    <style>
        path, circle { fill: #000; }
        @media (prefers-color-scheme: dark) {
            path, circle { fill: #fff; }
        }
    </style>
    <!-- Network/WiFi Symbol -->
    <path fill-rule="evenodd" clip-rule="evenodd" d="M12 4C7.58172 4 4 7.58172 4 12C4 16.4183 7.58172 20 12 20C16.4183 20 20 16.4183 20 12C20 7.58172 16.4183 4 12 4ZM2 12C2 6.47715 6.47715 2 12 2C17.5228 2 22 6.47715 22 12C22 17.5228 17.5228 22 12 22C6.47715 22 2 17.5228 2 12Z"/>
    <!-- Signal Waves -->
    <path d="M12 7C9.23858 7 7 9.23858 7 12C7 14.7614 9.23858 17 12 17C14.7614 17 17 14.7614 17 12"/>
    <path d="M12 9C10.3431 9 9 10.3431 9 12C9 13.6569 10.3431 15 12 15"/>
    <!-- Center Dot -->
    <circle cx="12" cy="12" r="2"/>
</svg>
